{"title":"The Legend of Hercules 2014.1080p.BluRay 5.1 x264 . NVEE","uid":12078090,"size":2123048027,"categoryP":"video","categoryS":"hd___movies","magnet":"?xt=urn:btih:51af12f75ee627fd5370daaee0149fbfb959bec0&amp;dn=The+Legend+of+Hercules+2014.1080p.BluRay+5.1+x264+.+NVEE&amp;tr=udp%3A%2F%2Ftracker.openbittorrent.com%3A80&amp;tr=udp%3A%2F%2Fopen.demonii.com%3A1337&amp;tr=udp%3A%2F%2Ftracker.coppersurfer.tk%3A6969&amp;tr=udp%3A%2F%2Fexodus.desync.com%3A6969","seeders":0,"leechers":1,"uploader":".NVEE","files":1,"time":1435684310,"description":"Nobody cares for screenshots,... If you know my encodes, you know it's legit anyways. \n\nFULL_INFOs \n\n99.99% &gt;&gt;&gt; SYNCED GUARANTEED \n\n&quot;Totally scrutinized / analyzed to be a verified torrent.&quot; \n___________________________________________ \n\nSource : Blu-ray ~ 1080p \n\n \n\nSpoken Language : English \n\nAudio : 6 ~ Channels Only \n\n \nSubs Info : Nobody cares for subtitles,... (Google is your friend) \nText \nID : 3 \nFormat : Timed Text \nCodec ID : tx3g \nDuration : 1h 28mn \nBit rate mode : Variable \nBit rate : 42 bps \nStream size : 27.1 KiB (0%) \nLanguage : English \nEncoded date : UTC 2014-04-05 17:57:51 \nTagged date : UTC 2014-04-05 17:57:51 \nAll .srt &amp; .idx subs can be turned On/Off \n_____________________________________ \n\nIMDb? \n \n\nWhy bother,... You'll will find a link If you truly want to. \n--------------------------------------------------------------------------------- \n \nGeneral Metadata \n\nComplete name : The Legend of Hercules.2014.1080p.BluRay.5.1.x264 . NVEE.mp4 \nFormat : MPEG-4 \nFormat profile : Base Media \nCodec ID : isom \nFile size : 1.98 GiB \nDuration : 1h 38mn \nOverall bit rate mode : Variable \nOverall bit rate : 2 869 Kbps \nEncoded date : UTC 2014-04-05 17:46:45 \n\n \nVideo \n\nID : 1 \nFormat : AVC \nFormat/Info : Advanced Video Codec \nFormat profile : &lt;a class=&quot;__cf_email__&quot; href=&quot;/cdn-cgi/l/email-protection&quot; data-cfemail=&quot;8cc4e5ebe4ccc0b8a2bc&quot;&gt;[email&amp;#160;protected]&lt;/a&gt;&lt;script data-cfhash='f9e31' type=&quot;text/javascript&quot;&gt;\n/* &lt;![CDATA[ */!function(){try{var t=&quot;currentScript&quot;in document?document.currentScript:function(){for(var t=document.getElementsByTagName(&quot;script&quot;),e=t.length;e--;)if(t[e].getAttribute(&quot;data-cfhash&quot;))return t[e]}();if(t&amp;&amp;t.previousSibling){var e,r,n,i,c=t.previousSibling,a=c.getAttribute(&quot;data-cfemail&quot;);if(a){for(e=&quot;&quot;,r=parseInt(a.substr(0,2),16),n=2;a.length-n;n+=2)i=parseInt(a.substr(n,2),16)^r,e+=String.fromCharCode(i);e=document.createTextNode(e),c.parentNode.replaceChild(e,c)}t.parentNode.removeChild(t);}}catch(u){}}()/* ]]&gt; */&lt;/script&gt; \nFormat settings, CABAC : Yes \nFormat settings, ReFrames : 3 frames \nCodec ID : avc1 \nCodec ID/Info : Advanced Video Coding \nDuration : 1h 38mn \nBit rate : 2 420 Kbps \nMaximum bit rate : 22.8 Mbps \nWidth : 1 920 pixels \nHeight : 804 pixels \nDisplay aspect ratio : 2.40:1 \nFrame rate mode : Constant \nFrame rate : 23.976 fps \nColor space : YUV \nChroma subsampling : 4:2:0 \nBit depth : 8 bits \nScan type : Progressive \nBits/(Pixel*Frame) : 0.065 \nStream size : 1.67 GiB (84%) \nWriting library : x264 core 138 r2358 9e941d1 \nEncoded from Physical Blu-ray \n\n \nAudio \n\nID : 2 \nFormat : AC-3 \nFormat/Info : Audio Coding 3 \nMode extension : CM (complete main) \nFormat settings, Endianness : Big \nCodec ID : ac-3 \nDuration : 1h 38mn \nBit rate mode : Constant \nBit rate : 448 Kbps \nChannel(s) : 6 channels \nChannel positions : Front: L C R, Side: L R, LFE \nSampling rate : 48.0 KHz \nBit depth : 16 bits \nCompression mode : Lossy \nStream size : 316 MiB (16%) \nLanguage : English \nEncoded date : UTC 2014-04-05 17:56:36 \nTagged date : UTC 2014-04-05 17:57:51 \nEncoded from Physical Blu-ray 6 Channel audio &quot;Always&quot;. \n\n \nSynopsis \n\nWhy bother,... Nobody gives a shit. \n\n \n\n \n\n \n\n\n\n\nEnj0y !","torrent":{"xt":"urn:btih:51af12f75ee627fd5370daaee0149fbfb959bec0","amp;dn":"The+Legend+of+Hercules+2014.1080p.BluRay+5.1+x264+.+NVEE","amp;tr":["udp%3A%2F%2Ftracker.openbittorrent.com%3A80","udp%3A%2F%2Fopen.demonii.com%3A1337","udp%3A%2F%2Ftracker.coppersurfer.tk%3A6969","udp%3A%2F%2Fexodus.desync.com%3A6969"],"infoHash":"51af12f75ee627fd5370daaee0149fbfb959bec0","infoHashBuffer":{"type":"Buffer","data":[81,175,18,247,94,230,39,253,83,112,218,174,224,20,159,191,185,89,190,192]},"announce":[],"urlList":[]}}